<svg width="20" height="20" viewBox="0 0 20 20" fill="none" xmlns="http://www.w3.org/2000/svg">
<g id="vuesax/linear/civic-(cvc)">
<g id="civic-(cvc)">
<path id="Vector" d="M11.9167 8.41667C12.1667 9.33334 11.7501 10.1667 11.0834 10.5833V12.25C11.0834 12.8333 10.5834 13.25 10.0834 13.25C9.50008 13.25 9.08341 12.75 9.08341 12.25V10.5833C8.50008 10.25 8.16675 9.58334 8.16675 8.91667C8.16675 7.66667 9.33341 6.66667 10.6667 7.00001C11.1667 7.25001 11.7501 7.75001 11.9167 8.41667Z" stroke="#778CBC" stroke-width="1.25" stroke-miterlimit="10"/>
<path id="Vector_2" d="M18 7.49999C16.9166 4.16666 13.75 1.66666 9.99996 1.66666C5.41663 1.66666 1.66663 5.41666 1.66663 9.99999C1.66663 14.5833 5.41663 18.3333 9.99996 18.3333C13.75 18.3333 16.9166 15.9167 17.9166 12.5" stroke="#778CBC" stroke-width="1.25" stroke-miterlimit="10" stroke-linecap="round" stroke-linejoin="round"/>
</g>
</g>
</svg>
