<svg width="20" height="20" viewBox="0 0 20 20" fill="none" xmlns="http://www.w3.org/2000/svg">
<g id="vuesax/linear/dent-(dent)">
<g id="dent-(dent)">
<path id="Vector" d="M9.99996 15.0833C9.41663 15.0833 8.91663 14.5833 8.91663 14V5.99999C8.91663 5.41666 9.41663 4.91666 9.99996 4.91666C10.5833 4.91666 11.0833 5.41666 11.0833 5.99999V14.0833C11.0833 14.6667 10.5833 15.0833 9.99996 15.0833Z" stroke="#778CBC" stroke-width="1.25" stroke-miterlimit="10"/>
<path id="Vector_2" d="M5.58334 7.41666C5.83334 6.91666 6.50001 6.74999 7.08334 6.99999L14.0833 11C14.5833 11.3333 14.75 12 14.5 12.5C14.1667 13 13.5 13.1667 13 12.9167L6.00001 8.91666C5.41667 8.66666 5.25001 7.99999 5.58334 7.41666Z" stroke="#778CBC" stroke-width="1.25" stroke-miterlimit="10"/>
<path id="Vector_3" d="M5.5833 12.5833C5.24996 12.0833 5.49996 11.4167 5.99996 11.0833L13 7.08333C13.5 6.74999 14.1666 6.99999 14.5 7.49999C14.8333 7.99999 14.5833 8.66666 14.0833 8.99999L7.0833 13C6.49996 13.25 5.8333 13.0833 5.5833 12.5833Z" stroke="#778CBC" stroke-width="1.25" stroke-miterlimit="10"/>
<path id="Vector_4" d="M9.99996 18.3333C14.6023 18.3333 18.3333 14.6024 18.3333 9.99999C18.3333 5.39762 14.6023 1.66666 9.99996 1.66666C5.39759 1.66666 1.66663 5.39762 1.66663 9.99999C1.66663 14.6024 5.39759 18.3333 9.99996 18.3333Z" stroke="#778CBC" stroke-width="1.25" stroke-miterlimit="10"/>
</g>
</g>
</svg>
